<mxfile host="app.diagrams.net" modified="2023-05-03T16:18:45.606Z" agent="Mozilla/5.0 (Macintosh; Intel Mac OS X 10_15_7) AppleWebKit/605.1.15 (KHTML, like Gecko) Version/14.1.1 Safari/605.1.15" etag="F2001YLcDugf_iXpUtB1" version="21.2.6" type="device">
  <diagram name="Pagina-1" id="15jQ6EiVJCIv36fdDwcx">
    <mxGraphModel dx="954" dy="534" grid="1" gridSize="10" guides="1" tooltips="1" connect="1" arrows="1" fold="1" page="1" pageScale="1" pageWidth="650" pageHeight="700" math="0" shadow="0">
      <root>
        <mxCell id="0" />
        <mxCell id="1" parent="0" />
        <mxCell id="BeJoIUdG6IXADMv6Izy2-1" value="Assets" style="childLayout=tableLayout;recursiveResize=0;strokeColor=default;fillColor=#dae8fc;shadow=0;movable=1;resizable=1;rotatable=1;deletable=1;editable=1;locked=0;connectable=1;fillStyle=auto;rounded=0;" vertex="1" parent="1">
          <mxGeometry x="30" y="50" width="410" height="129" as="geometry" />
        </mxCell>
        <mxCell id="BeJoIUdG6IXADMv6Izy2-2" style="shape=tableRow;horizontal=0;startSize=0;swimlaneHead=0;swimlaneBody=0;top=0;left=0;bottom=0;right=0;dropTarget=0;collapsible=0;recursiveResize=0;expand=0;fontStyle=0;strokeColor=inherit;fillColor=#ffffff;" vertex="1" parent="BeJoIUdG6IXADMv6Izy2-1">
          <mxGeometry width="410" height="33" as="geometry" />
        </mxCell>
        <mxCell id="BeJoIUdG6IXADMv6Izy2-3" value="Key" style="connectable=0;recursiveResize=0;strokeColor=inherit;fillColor=#FF8000;align=center;fontStyle=1;fontColor=#FFFFFF;html=1;" vertex="1" parent="BeJoIUdG6IXADMv6Izy2-2">
          <mxGeometry width="160" height="33" as="geometry">
            <mxRectangle width="160" height="33" as="alternateBounds" />
          </mxGeometry>
        </mxCell>
        <mxCell id="BeJoIUdG6IXADMv6Izy2-4" value="Value" style="connectable=0;recursiveResize=0;strokeColor=inherit;fillColor=#FF8000;align=center;fontStyle=1;fontColor=#FFFFFF;html=1;" vertex="1" parent="BeJoIUdG6IXADMv6Izy2-2">
          <mxGeometry x="160" width="250" height="33" as="geometry">
            <mxRectangle width="250" height="33" as="alternateBounds" />
          </mxGeometry>
        </mxCell>
        <mxCell id="BeJoIUdG6IXADMv6Izy2-6" value="" style="shape=tableRow;horizontal=0;startSize=0;swimlaneHead=0;swimlaneBody=0;top=0;left=0;bottom=0;right=0;dropTarget=0;collapsible=0;recursiveResize=0;expand=0;fontStyle=0;strokeColor=inherit;fillColor=#ffffff;" vertex="1" parent="BeJoIUdG6IXADMv6Izy2-1">
          <mxGeometry y="33" width="410" height="32" as="geometry" />
        </mxCell>
        <mxCell id="BeJoIUdG6IXADMv6Izy2-7" value="..." style="connectable=0;recursiveResize=0;strokeColor=inherit;fillColor=inherit;align=center;whiteSpace=wrap;html=1;" vertex="1" parent="BeJoIUdG6IXADMv6Izy2-6">
          <mxGeometry width="160" height="32" as="geometry">
            <mxRectangle width="160" height="32" as="alternateBounds" />
          </mxGeometry>
        </mxCell>
        <mxCell id="BeJoIUdG6IXADMv6Izy2-8" value="...." style="connectable=0;recursiveResize=0;strokeColor=inherit;fillColor=inherit;align=center;whiteSpace=wrap;html=1;" vertex="1" parent="BeJoIUdG6IXADMv6Izy2-6">
          <mxGeometry x="160" width="250" height="32" as="geometry">
            <mxRectangle width="250" height="32" as="alternateBounds" />
          </mxGeometry>
        </mxCell>
        <mxCell id="BeJoIUdG6IXADMv6Izy2-10" value="" style="shape=tableRow;horizontal=0;startSize=0;swimlaneHead=0;swimlaneBody=0;top=0;left=0;bottom=0;right=0;dropTarget=0;collapsible=0;recursiveResize=0;expand=0;fontStyle=1;strokeColor=inherit;fillColor=#EAF2D3;" vertex="1" parent="BeJoIUdG6IXADMv6Izy2-1">
          <mxGeometry y="65" width="410" height="31" as="geometry" />
        </mxCell>
        <mxCell id="BeJoIUdG6IXADMv6Izy2-11" value="&quot;/myPath/myFile.txt&quot;" style="connectable=0;recursiveResize=0;strokeColor=default;fillColor=#ffe6cc;whiteSpace=wrap;html=1;" vertex="1" parent="BeJoIUdG6IXADMv6Izy2-10">
          <mxGeometry width="160" height="31" as="geometry">
            <mxRectangle width="160" height="31" as="alternateBounds" />
          </mxGeometry>
        </mxCell>
        <mxCell id="BeJoIUdG6IXADMv6Izy2-12" value="writeLock=True &amp;nbsp; &amp;nbsp; - &amp;nbsp; &amp;nbsp; &amp;nbsp;numReaders=0&amp;nbsp;" style="connectable=0;recursiveResize=0;strokeColor=default;fillColor=#ffe6cc;whiteSpace=wrap;html=1;" vertex="1" parent="BeJoIUdG6IXADMv6Izy2-10">
          <mxGeometry x="160" width="250" height="31" as="geometry">
            <mxRectangle width="250" height="31" as="alternateBounds" />
          </mxGeometry>
        </mxCell>
        <mxCell id="BeJoIUdG6IXADMv6Izy2-14" value="" style="shape=tableRow;horizontal=0;startSize=0;swimlaneHead=0;swimlaneBody=0;top=0;left=0;bottom=0;right=0;dropTarget=0;collapsible=0;recursiveResize=0;expand=0;fontStyle=0;strokeColor=inherit;fillColor=#ffffff;" vertex="1" parent="BeJoIUdG6IXADMv6Izy2-1">
          <mxGeometry y="96" width="410" height="33" as="geometry" />
        </mxCell>
        <mxCell id="BeJoIUdG6IXADMv6Izy2-15" value="..." style="connectable=0;recursiveResize=0;strokeColor=inherit;fillColor=inherit;fontStyle=0;align=center;whiteSpace=wrap;html=1;" vertex="1" parent="BeJoIUdG6IXADMv6Izy2-14">
          <mxGeometry width="160" height="33" as="geometry">
            <mxRectangle width="160" height="33" as="alternateBounds" />
          </mxGeometry>
        </mxCell>
        <mxCell id="BeJoIUdG6IXADMv6Izy2-16" value="..." style="connectable=0;recursiveResize=0;strokeColor=inherit;fillColor=inherit;fontStyle=0;align=center;whiteSpace=wrap;html=1;" vertex="1" parent="BeJoIUdG6IXADMv6Izy2-14">
          <mxGeometry x="160" width="250" height="33" as="geometry">
            <mxRectangle width="250" height="33" as="alternateBounds" />
          </mxGeometry>
        </mxCell>
        <mxCell id="BeJoIUdG6IXADMv6Izy2-27" value="&lt;b&gt;&lt;font style=&quot;font-size: 18px;&quot;&gt;HASHMAP CONCORRENZA&lt;/font&gt;&lt;/b&gt;" style="text;html=1;strokeColor=none;fillColor=none;align=center;verticalAlign=middle;whiteSpace=wrap;rounded=0;" vertex="1" parent="1">
          <mxGeometry x="76.5" y="10" width="317" height="30" as="geometry" />
        </mxCell>
      </root>
    </mxGraphModel>
  </diagram>
</mxfile>
